<mxfile host="app.diagrams.net" modified="2021-01-10T01:15:22.807Z" agent="5.0 (Windows NT 10.0; Win64; x64) AppleWebKit/537.36 (KHTML, like Gecko) Chrome/87.0.4280.141 Safari/537.36" etag="PPhPuYyYgIXML7ZKSyW5" version="14.1.8" type="github">
  <diagram id="44xPMnF8h4m3Ln5QKY0y" name="Page-1">
    <mxGraphModel dx="1422" dy="738" grid="1" gridSize="10" guides="1" tooltips="1" connect="1" arrows="1" fold="1" page="1" pageScale="1" pageWidth="1600" pageHeight="900" math="0" shadow="0">
      <root>
        <mxCell id="0" />
        <mxCell id="1" parent="0" />
        <mxCell id="dQ2SpbTpq212rOv5eDBQ-16" style="edgeStyle=orthogonalEdgeStyle;rounded=0;orthogonalLoop=1;jettySize=auto;html=1;entryX=0;entryY=0.25;entryDx=0;entryDy=0;" edge="1" parent="1" source="dQ2SpbTpq212rOv5eDBQ-1" target="dQ2SpbTpq212rOv5eDBQ-3">
          <mxGeometry relative="1" as="geometry">
            <Array as="points">
              <mxPoint x="690" y="240" />
              <mxPoint x="690" y="295" />
            </Array>
          </mxGeometry>
        </mxCell>
        <mxCell id="dQ2SpbTpq212rOv5eDBQ-18" style="edgeStyle=orthogonalEdgeStyle;rounded=0;orthogonalLoop=1;jettySize=auto;html=1;entryX=0;entryY=0.5;entryDx=0;entryDy=0;exitX=1;exitY=0.25;exitDx=0;exitDy=0;" edge="1" parent="1" source="dQ2SpbTpq212rOv5eDBQ-1" target="dQ2SpbTpq212rOv5eDBQ-7">
          <mxGeometry relative="1" as="geometry" />
        </mxCell>
        <mxCell id="dQ2SpbTpq212rOv5eDBQ-1" value="后端" style="rounded=1;whiteSpace=wrap;html=1;" vertex="1" parent="1">
          <mxGeometry x="540" y="200" width="120" height="60" as="geometry" />
        </mxCell>
        <mxCell id="dQ2SpbTpq212rOv5eDBQ-17" style="edgeStyle=orthogonalEdgeStyle;rounded=0;orthogonalLoop=1;jettySize=auto;html=1;entryX=0;entryY=0.75;entryDx=0;entryDy=0;" edge="1" parent="1" source="dQ2SpbTpq212rOv5eDBQ-2" target="dQ2SpbTpq212rOv5eDBQ-3">
          <mxGeometry relative="1" as="geometry" />
        </mxCell>
        <mxCell id="dQ2SpbTpq212rOv5eDBQ-2" value="前端" style="rounded=1;whiteSpace=wrap;html=1;" vertex="1" parent="1">
          <mxGeometry x="540" y="360" width="120" height="60" as="geometry" />
        </mxCell>
        <mxCell id="dQ2SpbTpq212rOv5eDBQ-19" style="edgeStyle=orthogonalEdgeStyle;rounded=0;orthogonalLoop=1;jettySize=auto;html=1;" edge="1" parent="1" source="dQ2SpbTpq212rOv5eDBQ-3">
          <mxGeometry relative="1" as="geometry">
            <mxPoint x="900" y="310" as="targetPoint" />
          </mxGeometry>
        </mxCell>
        <mxCell id="dQ2SpbTpq212rOv5eDBQ-3" value="制定接口" style="rounded=1;whiteSpace=wrap;html=1;" vertex="1" parent="1">
          <mxGeometry x="720" y="280" width="120" height="60" as="geometry" />
        </mxCell>
        <mxCell id="dQ2SpbTpq212rOv5eDBQ-21" style="edgeStyle=orthogonalEdgeStyle;rounded=0;orthogonalLoop=1;jettySize=auto;html=1;" edge="1" parent="1" source="dQ2SpbTpq212rOv5eDBQ-4" target="dQ2SpbTpq212rOv5eDBQ-20">
          <mxGeometry relative="1" as="geometry" />
        </mxCell>
        <mxCell id="dQ2SpbTpq212rOv5eDBQ-4" value="Yapi" style="rounded=1;whiteSpace=wrap;html=1;arcSize=12;" vertex="1" parent="1">
          <mxGeometry x="900" y="280" width="120" height="60" as="geometry" />
        </mxCell>
        <mxCell id="dQ2SpbTpq212rOv5eDBQ-26" style="edgeStyle=orthogonalEdgeStyle;rounded=0;orthogonalLoop=1;jettySize=auto;html=1;exitX=1;exitY=0.25;exitDx=0;exitDy=0;" edge="1" parent="1" source="dQ2SpbTpq212rOv5eDBQ-4" target="dQ2SpbTpq212rOv5eDBQ-5">
          <mxGeometry relative="1" as="geometry">
            <Array as="points">
              <mxPoint x="1040" y="295" />
              <mxPoint x="1040" y="190" />
            </Array>
          </mxGeometry>
        </mxCell>
        <mxCell id="dQ2SpbTpq212rOv5eDBQ-5" value="接口调试" style="rounded=1;whiteSpace=wrap;html=1;" vertex="1" parent="1">
          <mxGeometry x="1080" y="160" width="120" height="60" as="geometry" />
        </mxCell>
        <mxCell id="dQ2SpbTpq212rOv5eDBQ-28" style="edgeStyle=orthogonalEdgeStyle;rounded=0;orthogonalLoop=1;jettySize=auto;html=1;exitX=1;exitY=0.75;exitDx=0;exitDy=0;" edge="1" parent="1" source="dQ2SpbTpq212rOv5eDBQ-4" target="dQ2SpbTpq212rOv5eDBQ-6">
          <mxGeometry relative="1" as="geometry">
            <Array as="points">
              <mxPoint x="1040" y="325" />
              <mxPoint x="1040" y="420" />
            </Array>
          </mxGeometry>
        </mxCell>
        <mxCell id="dQ2SpbTpq212rOv5eDBQ-29" style="edgeStyle=orthogonalEdgeStyle;rounded=0;orthogonalLoop=1;jettySize=auto;html=1;exitX=0;exitY=0.75;exitDx=0;exitDy=0;entryX=0.5;entryY=1;entryDx=0;entryDy=0;" edge="1" parent="1" source="dQ2SpbTpq212rOv5eDBQ-6" target="dQ2SpbTpq212rOv5eDBQ-2">
          <mxGeometry relative="1" as="geometry" />
        </mxCell>
        <mxCell id="dQ2SpbTpq212rOv5eDBQ-6" value="mock" style="rounded=1;whiteSpace=wrap;html=1;" vertex="1" parent="1">
          <mxGeometry x="1080" y="400" width="120" height="60" as="geometry" />
        </mxCell>
        <mxCell id="dQ2SpbTpq212rOv5eDBQ-24" style="edgeStyle=orthogonalEdgeStyle;rounded=0;orthogonalLoop=1;jettySize=auto;html=1;entryX=0.5;entryY=0;entryDx=0;entryDy=0;" edge="1" parent="1" source="dQ2SpbTpq212rOv5eDBQ-7" target="dQ2SpbTpq212rOv5eDBQ-4">
          <mxGeometry relative="1" as="geometry" />
        </mxCell>
        <mxCell id="dQ2SpbTpq212rOv5eDBQ-7" value="swagger数据同步" style="rounded=1;whiteSpace=wrap;html=1;" vertex="1" parent="1">
          <mxGeometry x="720" y="160" width="120" height="60" as="geometry" />
        </mxCell>
        <mxCell id="dQ2SpbTpq212rOv5eDBQ-10" style="edgeStyle=orthogonalEdgeStyle;rounded=0;orthogonalLoop=1;jettySize=auto;html=1;entryX=0;entryY=0.5;entryDx=0;entryDy=0;" edge="1" parent="1" target="dQ2SpbTpq212rOv5eDBQ-9">
          <mxGeometry relative="1" as="geometry">
            <mxPoint x="200" y="310" as="sourcePoint" />
          </mxGeometry>
        </mxCell>
        <mxCell id="dQ2SpbTpq212rOv5eDBQ-14" style="edgeStyle=orthogonalEdgeStyle;rounded=0;orthogonalLoop=1;jettySize=auto;html=1;entryX=0;entryY=0.5;entryDx=0;entryDy=0;" edge="1" parent="1" source="dQ2SpbTpq212rOv5eDBQ-9" target="dQ2SpbTpq212rOv5eDBQ-1">
          <mxGeometry relative="1" as="geometry">
            <Array as="points">
              <mxPoint x="500" y="300" />
              <mxPoint x="500" y="230" />
            </Array>
          </mxGeometry>
        </mxCell>
        <mxCell id="dQ2SpbTpq212rOv5eDBQ-15" style="edgeStyle=orthogonalEdgeStyle;rounded=0;orthogonalLoop=1;jettySize=auto;html=1;entryX=0;entryY=0.5;entryDx=0;entryDy=0;" edge="1" parent="1" source="dQ2SpbTpq212rOv5eDBQ-9" target="dQ2SpbTpq212rOv5eDBQ-2">
          <mxGeometry relative="1" as="geometry">
            <Array as="points">
              <mxPoint x="500" y="320" />
              <mxPoint x="500" y="390" />
            </Array>
          </mxGeometry>
        </mxCell>
        <mxCell id="dQ2SpbTpq212rOv5eDBQ-9" value="系统设计" style="rounded=1;whiteSpace=wrap;html=1;" vertex="1" parent="1">
          <mxGeometry x="340" y="280" width="120" height="60" as="geometry" />
        </mxCell>
        <mxCell id="dQ2SpbTpq212rOv5eDBQ-11" value="需求分析" style="rounded=1;whiteSpace=wrap;html=1;" vertex="1" parent="1">
          <mxGeometry x="160" y="280" width="120" height="60" as="geometry" />
        </mxCell>
        <mxCell id="dQ2SpbTpq212rOv5eDBQ-22" style="edgeStyle=orthogonalEdgeStyle;rounded=0;orthogonalLoop=1;jettySize=auto;html=1;" edge="1" parent="1" source="dQ2SpbTpq212rOv5eDBQ-20">
          <mxGeometry relative="1" as="geometry">
            <mxPoint x="1260" y="310" as="targetPoint" />
          </mxGeometry>
        </mxCell>
        <mxCell id="dQ2SpbTpq212rOv5eDBQ-20" value="前后端并行开发" style="rounded=1;whiteSpace=wrap;html=1;" vertex="1" parent="1">
          <mxGeometry x="1080" y="280" width="120" height="60" as="geometry" />
        </mxCell>
        <mxCell id="dQ2SpbTpq212rOv5eDBQ-23" value="联调" style="rounded=1;whiteSpace=wrap;html=1;" vertex="1" parent="1">
          <mxGeometry x="1260" y="280" width="120" height="60" as="geometry" />
        </mxCell>
        <mxCell id="dQ2SpbTpq212rOv5eDBQ-30" value="前后端协作流程图" style="text;html=1;strokeColor=none;fillColor=none;align=center;verticalAlign=middle;whiteSpace=wrap;rounded=0;" vertex="1" parent="1">
          <mxGeometry x="740" y="480" width="120" height="20" as="geometry" />
        </mxCell>
      </root>
    </mxGraphModel>
  </diagram>
</mxfile>
